<?xml version="1.0" standalone="no"?>
<!DOCTYPE svg PUBLIC "-//W3C//DTD SVG 20010904//EN"
 "http://www.w3.org/TR/2001/REC-SVG-20010904/DTD/svg10.dtd">
<svg version="1.0" xmlns="http://www.w3.org/2000/svg"
 width="512.000000pt" height="512.000000pt" viewBox="0 0 512.000000 512.000000"
 preserveAspectRatio="xMidYMid meet">
<metadata>
Created by potrace 1.14, written by Peter Selinger 2001-2017
</metadata>
<g transform="translate(0.000000,512.000000) scale(0.100000,-0.100000)"
fill="#000000" stroke="none">
<path d="M1560 2555 l0 -1395 230 0 230 0 0 570 0 570 174 0 174 0 332 -570
331 -570 265 0 c145 0 264 2 264 4 0 3 -154 260 -341 573 -188 312 -343 573
-346 579 -2 6 22 18 59 28 35 10 109 40 165 67 272 133 424 392 424 718 0 439
-257 724 -725 806 -73 12 -191 15 -662 15 l-574 0 0 -1395z m991 1085 c339
-28 500 -192 500 -510 0 -259 -111 -422 -339 -498 -75 -25 -86 -26 -384 -30
l-308 -4 0 526 0 526 208 0 c114 0 259 -5 323 -10z"/>
</g>
</svg>
